/* XPM */
static char * bitcoin32_xpm[] = {
"32 32 172 2",
"  	c None",
". 	c #5481F8",
"+ 	c #5898F0",
"@ 	c #5472F8",
"# 	c #5482F3",
"$ 	c #4C98FA",
"% 	c #50B2F3",
"& 	c #5B63F9",
"* 	c #5F74F0",
"= 	c #46B0FA",
"- 	c #4BC9F1",
"; 	c #5E57F5",
"> 	c #6267EF",
", 	c #44C8FB",
"' 	c #47DEF3",
") 	c #6147F8",
"! 	c #645BEB",
"~ 	c #567EDD",
"{ 	c #3CDFFA",
"] 	c #41F1F7",
"^ 	c #6837F3",
"/ 	c #674EEB",
"( 	c #4C70E0",
"_ 	c #5085FC",
": 	c #5296F6",
"< 	c #37F5F9",
"[ 	c #3CF6F6",
"} 	c #6B2CE2",
"| 	c #6443E5",
"1 	c #5865DE",
"2 	c #5675FB",
"3 	c #6282ED",
"4 	c #4A94F3",
"5 	c #4EADF7",
"6 	c #34F0F1",
"7 	c #3FE8E3",
"8 	c #565DDF",
"9 	c #576CFC",
"0 	c #687EE4",
"a 	c #48A6EE",
"b 	c #45C0F8",
"c 	c #682BE1",
"d 	c #6635E4",
"e 	c #6341E8",
"f 	c #604BEC",
"g 	c #5E53EC",
"h 	c #5C60FB",
"i 	c #6774E3",
"j 	c #48B7EE",
"k 	c #44D2FC",
"l 	c #4ADBF3",
"m 	c #42EDF5",
"n 	c #3DF4F5",
"o 	c #3CF5F4",
"p 	c #3CF4F2",
"q 	c #6725D9",
"r 	c #6B29EC",
"s 	c #6732EF",
"t 	c #643EF3",
"u 	c #6049F7",
"v 	c #6055F5",
"w 	c #696ADF",
"x 	c #47C6F0",
"y 	c #40E4FA",
"z 	c #39F8FD",
"A 	c #35FDFB",
"B 	c #31FDFD",
"C 	c #32FBFB",
"D 	c #683CE8",
"E 	c #6059FF",
"F 	c #5679F1",
"G 	c #48A5F0",
"H 	c #7436FF",
"I 	c #6058FD",
"J 	c #5678FA",
"K 	c #48A7FD",
"L 	c #48DAF7",
"M 	c #5F2FE4",
"N 	c #5B45EE",
"O 	c #525DF4",
"P 	c #4A78F5",
"Q 	c #40A5F7",
"R 	c #38D9F7",
"S 	c #2EFAFB",
"T 	c #5478F2",
"U 	c #48A8FE",
"V 	c #39DFFD",
"W 	c #4BECF0",
"X 	c #7A31E6",
"Y 	c #754CF5",
"Z 	c #6A69F3",
"` 	c #5E88F4",
" .	c #53AFF7",
"..	c #49DAF8",
"+.	c #3DF7FA",
"@.	c #3FEEEC",
"#.	c #5C32DF",
"$.	c #5A46E7",
"%.	c #525CE7",
"&.	c #4877E9",
"*.	c #42A1EC",
"=.	c #3AD2EE",
"-.	c #35F4F3",
";.	c #5479E5",
">.	c #47A7FF",
",.	c #43DDFC",
"'.	c #774BE7",
").	c #6E66EA",
"!.	c #6083ED",
"~.	c #57A9EE",
"{.	c #4ED3F0",
"].	c #49EFF3",
"^.	c #48A7FF",
"/.	c #46DEF8",
"(.	c #47A6FB",
"_.	c #6E25F8",
":.	c #6B2FF9",
"<.	c #673AF9",
"[.	c #6445FF",
"}.	c #5F51FE",
"|.	c #6463EB",
"1.	c #50A2D9",
"2.	c #41CAF7",
"3.	c #38E7FD",
"4.	c #35F8FF",
"5.	c #2EFFFF",
"6.	c #2AFFFF",
"7.	c #25FCFC",
"8.	c #5C5DF8",
"9.	c #5E6FEC",
"0.	c #42B9F6",
"a.	c #4DCEF4",
"b.	c #5668F9",
"c.	c #6179EE",
"d.	c #46A8F8",
"e.	c #4EBBF2",
"f.	c #652EE6",
"g.	c #693CF1",
"h.	c #5574F9",
"i.	c #4E92F9",
"j.	c #50AAF4",
"k.	c #43E3EA",
"l.	c #2DFDFB",
"m.	c #45EBEE",
"n.	c #643BE9",
"o.	c #644AF6",
"p.	c #5281F7",
"q.	c #5496EF",
"r.	c #3ED3E9",
"s.	c #30FDFE",
"t.	c #4BE9EE",
"u.	c #6048EA",
"v.	c #6356F8",
"w.	c #46BEEA",
"x.	c #37E6FC",
"y.	c #4FE4EB",
"z.	c #5D55ED",
"A.	c #5D65F9",
"B.	c #48A8EA",
"C.	c #41CCFD",
"D.	c #58D4E6",
"E.	c #5862EA",
"F.	c #5773FB",
"G.	c #4A93E9",
"H.	c #44B4FC",
"I.	c #5BBFE8",
"J.	c #5470ED",
"K.	c #5283FC",
"L.	c #4B9BFD",
"M.	c #5DB0E9",
"N.	c #507DEA",
"O.	c #659BE7",
"                                                                ",
"                                                                ",
"                                                                ",
"                              . +                               ",
"                            @ # $ %                             ",
"                          & *     = -                           ",
"                        ; >         , '                         ",
"                      ) !     ~       { ]                       ",
"                    ^ /     ( _ :       < [                     ",
"                  } |     1 2 3 4 5       6 7                   ",
"                        8 9 0     a b                           ",
"              c d e f g h i         j k l m n o p               ",
"            q r s t u v w             x y z A B C               ",
"                          D E F G                               ",
"                          H I J K L                             ",
"    M N O P Q R S             T U V W       X Y Z `  ...+.@.    ",
"    #.$.%.&.*.=.-.            ;.>.,.          '.).!.~.{.].      ",
"                                ^./.                            ",
"                                (.                              ",
"              _.:.<.[.}.|.      1.    2.3.4.5.6.7.              ",
"                        8.9.        0.a.                        ",
"                          b.c.    d.e.                          ",
"                  f.g.      h.# i.j.    k.l.m.                  ",
"                    n.o.      p.q.    r.s.t.                    ",
"                      u.v.          w.x.y.                      ",
"                        z.A.      B.C.D.                        ",
"                          E.F.  G.H.I.                          ",
"                            J.K.L.M.                            ",
"                              N.O.                              ",
"                                                                ",
"                                                                ",
"                                                                "};
