/* XPM */
static char * bitcoin16_xpm[] = {
"16 16 40 1",
" 	c None",
".	c #5978F3",
"+	c #4AA6F5",
"@	c #625FF0",
"#	c #42D3F6",
"$	c #6843ED",
"%	c #547BF4",
"&	c #509EF4",
"*	c #38F2F4",
"=	c #5B67F3",
"-	c #48C4F5",
";	c #6538EF",
">	c #5F4FF5",
",	c #5D66F2",
"'	c #3CEFFC",
")	c #32FEFD",
"!	c #5D39EA",
"~	c #4E6AF6",
"{	c #3CC0F8",
"]	c #596AF6",
"^	c #43C4FD",
"/	c #6578F3",
"(	c #4EC5F8",
"_	c #46C3FD",
":	c #6925E6",
"<	c #6637F0",
"[	c #614CF4",
"}	c #4EADEE",
"|	c #3BE9F6",
"1	c #34F9F8",
"2	c #5A64F2",
"3	c #4BC2F4",
"4	c #6743EE",
"5	c #537BF4",
"6	c #529DF4",
"7	c #37F6F7",
"8	c #605DF3",
"9	c #42D4F5",
"0	c #5679F6",
"a	c #4BA6F6",
"                ",
"                ",
"       .+       ",
"      @  #      ",
"     $ %& *     ",
"      =  -      ",
"    ;> ,  ')    ",
" !~{   ]^   /(  ",
"        _       ",
"   :<[  } |1    ",
"      2  3      ",
"     4 56 7     ",
"      8  9      ",
"       0a       ",
"                ",
"                "};
