/* XPM */
static char * bitcoin64_xpm[] = {
"64 64 639 2",
"  	c None",
". 	c #5D85D6",
"+ 	c #5676E1",
"@ 	c #5088FF",
"# 	c #5792EE",
"$ 	c #5770DF",
"% 	c #597DFC",
"& 	c #5288FC",
"* 	c #5391FC",
"= 	c #52A3F0",
"- 	c #536AE2",
"; 	c #5278FD",
"> 	c #5380FC",
", 	c #5388FB",
"' 	c #4D94FE",
") 	c #46A1FC",
"! 	c #51ACEF",
"~ 	c #5964E0",
"{ 	c #566FFF",
"] 	c #5577FB",
"^ 	c #5582EF",
"/ 	c #567AE3",
"( 	c #4F8EF1",
"_ 	c #509DFB",
": 	c #47ADFE",
"< 	c #4EB7F4",
"[ 	c #5B5DE8",
"} 	c #5C66FB",
"| 	c #596EFD",
"1 	c #5B75F2",
"2 	c #738CDA",
"3 	c #489DED",
"4 	c #4BACFC",
"5 	c #44B7F9",
"6 	c #47C4EE",
"7 	c #5859E2",
"8 	c #5A63FC",
"9 	c #5B68FF",
"0 	c #6071EF",
"a 	c #45A3EF",
"b 	c #44B8FF",
"c 	c #41C3F9",
"d 	c #49D1F6",
"e 	c #5B54D6",
"f 	c #605AFF",
"g 	c #5E5FF7",
"h 	c #5E68F0",
"i 	c #4DABE8",
"j 	c #45C2FE",
"k 	c #3CD3FE",
"l 	c #49D8F5",
"m 	c #5C4AE3",
"n 	c #5F51FB",
"o 	c #5F5BFA",
"p 	c #6265EF",
"q 	c #4CB8EF",
"r 	c #44D0FB",
"s 	c #38DEFD",
"t 	c #44E6EF",
"u 	c #5B45DF",
"v 	c #6049FB",
"w 	c #5E4FFC",
"x 	c #625FE7",
"y 	c #6185C9",
"z 	c #48C2EC",
"A 	c #3DDFFF",
"B 	c #3CE7FC",
"C 	c #3CF2FB",
"D 	c #5E42DA",
"E 	c #6444FD",
"F 	c #6449FE",
"G 	c #6457E9",
"H 	c #5470CF",
"I 	c #5287F6",
"J 	c #6497E8",
"K 	c #4AC8E8",
"L 	c #2FEDFF",
"M 	c #35F5FE",
"N 	c #43F6F7",
"O 	c #6337E1",
"P 	c #683AF8",
"Q 	c #6642FB",
"R 	c #6551E8",
"S 	c #496ECF",
"T 	c #5580F9",
"U 	c #4E87FD",
"V 	c #4B90FC",
"W 	c #639BEA",
"X 	c #47D8EC",
"Y 	c #39F7FC",
"Z 	c #29FEFC",
"` 	c #3FF7F7",
" .	c #5DD5E5",
"..	c #6734D9",
"+.	c #6A34F9",
"@.	c #6A3AF5",
"#.	c #664CE7",
"$.	c #4A69D0",
"%.	c #507AFD",
"&.	c #5082F8",
"*.	c #4E89FC",
"=.	c #4E92F7",
"-.	c #4E99F8",
";.	c #5EA5E9",
">.	c #44DDE6",
",.	c #3AFDFE",
"'.	c #32FDFD",
").	c #31FDF8",
"!.	c #65D4DD",
"~.	c #692BDF",
"{.	c #752AFB",
"].	c #6835FD",
"^.	c #6645E5",
"/.	c #5763D0",
"(.	c #5871FA",
"_.	c #547CF5",
":.	c #577DFC",
"<.	c #5A82EC",
"[.	c #4D91F8",
"}.	c #459CFE",
"|.	c #4CA6F6",
"1.	c #5CB1EC",
"2.	c #45E1E4",
"3.	c #24FFFF",
"4.	c #26FCFF",
"5.	c #31FBF8",
"6.	c #5AD7DB",
"7.	c #5F2ECA",
"8.	c #593FC8",
"9.	c #515FCE",
"0.	c #5C6EF9",
"a.	c #5871FE",
"b.	c #5776F6",
"c.	c #728ADB",
"d.	c #4D98F2",
"e.	c #4DA7FB",
"f.	c #44B0FC",
"g.	c #5DB6F0",
"h.	c #50D6D3",
"i.	c #4DD7D8",
"j.	c #33E1D5",
"k.	c #46DDD4",
"l.	c #505DCF",
"m.	c #5D68FB",
"n.	c #5471FA",
"o.	c #5877F4",
"p.	c #7586E1",
"q.	c #46A4F0",
"r.	c #46B3F7",
"s.	c #45BBFA",
"t.	c #56C1EE",
"u.	c #5858D0",
"v.	c #5B63FC",
"w.	c #566AFD",
"x.	c #586EF5",
"y.	c #7081D7",
"z.	c #49ABF3",
"A.	c #3BBAFF",
"B.	c #43C6F6",
"C.	c #57CAEE",
"D.	c #5852D8",
"E.	c #5C5EFA",
"F.	c #5B63FF",
"G.	c #5A69F8",
"H.	c #707CD5",
"I.	c #48B2EF",
"J.	c #44C3FA",
"K.	c #3DCDFD",
"L.	c #55D5F2",
"M.	c #6A24DE",
"N.	c #6C25EA",
"O.	c #692BEC",
"P.	c #6830EF",
"Q.	c #6735F1",
"R.	c #653BF3",
"S.	c #6440F7",
"T.	c #6346F9",
"U.	c #5E4DF9",
"V.	c #6051F8",
"W.	c #6258FD",
"X.	c #5C5AFE",
"Y.	c #5E65ED",
"Z.	c #717AD8",
"`.	c #49BBED",
" +	c #3FCBFE",
".+	c #41D5FD",
"++	c #43DFFC",
"@+	c #41E7FD",
"#+	c #3CF3FD",
"$+	c #3AFAFE",
"%+	c #38FDFC",
"&+	c #37FDFC",
"*+	c #35FDFD",
"=+	c #32FCFC",
"-+	c #2FFCFA",
";+	c #35FAFA",
">+	c #6B23E6",
",+	c #6D23F1",
"'+	c #6A2AF3",
")+	c #692EF6",
"!+	c #6833F8",
"~+	c #6539F9",
"{+	c #643FFD",
"]+	c #6345FF",
"^+	c #5E4BFF",
"/+	c #6051FF",
"(+	c #6057FA",
"_+	c #605CEF",
":+	c #7276DA",
"<+	c #4FBFF1",
"[+	c #39D6FF",
"}+	c #3CE1FC",
"|+	c #39EBFF",
"1+	c #33F6FE",
"2+	c #32FEFF",
"3+	c #31FFFD",
"4+	c #2EFFFD",
"5+	c #2EFFFF",
"6+	c #2AFFFF",
"7+	c #28FEFF",
"8+	c #31FBFC",
"9+	c #6828D8",
"0+	c #6A2AE2",
"a+	c #662FE3",
"b+	c #6632E4",
"c+	c #6436E5",
"d+	c #623DE8",
"e+	c #6242EB",
"f+	c #6147EE",
"g+	c #5E4DEE",
"h+	c #6053EE",
"i+	c #6159ED",
"j+	c #4CCBED",
"k+	c #48DBF4",
"l+	c #45E6F9",
"m+	c #42EFF9",
"n+	c #3FF8FB",
"o+	c #3DFAFA",
"p+	c #3BFBFA",
"q+	c #38FBFA",
"r+	c #37FCF9",
"s+	c #34FCF9",
"t+	c #3FF6F7",
"u+	c #6145E0",
"v+	c #6250FF",
"w+	c #5F62FC",
"x+	c #6172E7",
"y+	c #5E82D9",
"z+	c #4AA6DA",
"A+	c #6D36E6",
"B+	c #6B3FFF",
"C+	c #6251FD",
"D+	c #5C63FD",
"E+	c #5371FD",
"F+	c #4A82FF",
"G+	c #5096FD",
"H+	c #3ABAFC",
"I+	c #5ECBEC",
"J+	c #5F2ECE",
"K+	c #732FFC",
"L+	c #7040FB",
"M+	c #644EFB",
"N+	c #5D5FFD",
"O+	c #586FFC",
"P+	c #5481F8",
"Q+	c #489CFB",
"R+	c #47B4FC",
"S+	c #39D1FA",
"T+	c #62DAE7",
"U+	c #622ACB",
"V+	c #762EFE",
"W+	c #6F3FFD",
"X+	c #6352FB",
"Y+	c #5D60FE",
"Z+	c #596EFE",
"`+	c #5382F6",
" @	c #4A9BFE",
".@	c #45B5FE",
"+@	c #3FD1FD",
"@@	c #4DE3F7",
"#@	c #5C2DCC",
"$@	c #5B36E3",
"%@	c #5B41E0",
"&@	c #5A4BE3",
"*@	c #5757E7",
"=@	c #5163EC",
"-@	c #4D6FEC",
";@	c #4B81ED",
">@	c #4797EF",
",@	c #44B0F2",
"'@	c #3EC7F4",
")@	c #3CE0F3",
"!@	c #3EF1F8",
"~@	c #33F6F5",
"{@	c #55E7E5",
"]@	c #6A3ED6",
"^@	c #6B4ADF",
"/@	c #545DD8",
"(@	c #5970F3",
"_@	c #5481FF",
":@	c #4A9BFF",
"<@	c #35EBFC",
"[@	c #4BEFF4",
"}@	c #5BE1E7",
"|@	c #7C38EB",
"1@	c #7547EB",
"2@	c #7354F0",
"3@	c #6F61EC",
"4@	c #6471EB",
"5@	c #6181EE",
"6@	c #5C8FEC",
"7@	c #58A2F1",
"8@	c #55B5F3",
"9@	c #52CBF6",
"0@	c #48E2F5",
"a@	c #47EFF7",
"b@	c #3EF0F2",
"c@	c #34F1E9",
"d@	c #6429E6",
"e@	c #5E33F8",
"f@	c #5C3EF9",
"g@	c #5949F9",
"h@	c #5057F9",
"i@	c #4F62FE",
"j@	c #4B6EFD",
"k@	c #4881FB",
"l@	c #3F9BFD",
"m@	c #3AB4FB",
"n@	c #37CEF7",
"o@	c #2FE9FB",
"p@	c #2DFBFF",
"q@	c #20FFFD",
"r@	c #4EEEF1",
"s@	c #4E69D3",
"t@	c #5384FB",
"u@	c #40D0FD",
"v@	c #36EAFD",
"w@	c #3DF5F8",
"x@	c #722CCF",
"y@	c #8331FF",
"z@	c #7943F9",
"A@	c #7552FB",
"B@	c #6E65F6",
"C@	c #6B6EFD",
"D@	c #637EFB",
"E@	c #5A91F8",
"F@	c #52A8FC",
"G@	c #50BEF9",
"H@	c #4BD3F7",
"I@	c #43E5FD",
"J@	c #3DF8FE",
"K@	c #36FFFC",
"L@	c #29FDFB",
"M@	c #5F2CE6",
"N@	c #5D34F0",
"O@	c #5C3FF1",
"P@	c #5A4BF4",
"Q@	c #5557F5",
"R@	c #5163F3",
"S@	c #4970F1",
"T@	c #4484F6",
"U@	c #419CF8",
"V@	c #3EB3F8",
"W@	c #3ACCF9",
"X@	c #31EAF7",
"Y@	c #33F9FC",
"Z@	c #28FDF9",
"`@	c #4DEEF3",
" #	c #5681F6",
".#	c #499AFF",
"+#	c #3FD0FD",
"@#	c #3CECFD",
"##	c #6A2FC4",
"$#	c #8234F1",
"%#	c #7B42F2",
"&#	c #7851F3",
"*#	c #745FF5",
"=#	c #6970F5",
"-#	c #6380F8",
";#	c #5E8EF9",
">#	c #58A5F9",
",#	c #52BBFB",
"'#	c #4CD0FB",
")#	c #48E6FA",
"!#	c #47F5FD",
"~#	c #3FFAFB",
"{#	c #31FCFA",
"]#	c #507DE2",
"^#	c #4899FE",
"/#	c #44B4FE",
"(#	c #3ED0FD",
"_#	c #55E4F8",
":#	c #517EDF",
"<#	c #4EE7F5",
"[#	c #517CDB",
"}#	c #44B5FD",
"|#	c #3ED1FD",
"1#	c #4FE7F2",
"2#	c #547DDC",
"3#	c #499AFE",
"4#	c #42B4FC",
"5#	c #45D2FA",
"6#	c #5E31CC",
"7#	c #5D36CE",
"8#	c #5D3BD1",
"9#	c #5C3DCD",
"0#	c #5C42D1",
"a#	c #5D48D3",
"b#	c #5F4DD5",
"c#	c #5E53D3",
"d#	c #5F5BCC",
"e#	c #5096F2",
"f#	c #42B5F9",
"g#	c #65C3DD",
"h#	c #4ABBD1",
"i#	c #4BC9E0",
"j#	c #49D0DF",
"k#	c #48DADF",
"l#	c #4AE0E0",
"m#	c #4DE3E3",
"n#	c #4BE4E3",
"o#	c #46E6E2",
"p#	c #43E8E1",
"q#	c #42E7E0",
"r#	c #44E3DE",
"s#	c #6522D6",
"t#	c #741EFA",
"u#	c #6D27F2",
"v#	c #6D2DF6",
"w#	c #6C31F7",
"x#	c #6938F6",
"y#	c #683DF9",
"z#	c #6842FD",
"A#	c #6046FE",
"B#	c #604EFD",
"C#	c #5F53FD",
"D#	c #6563E6",
"E#	c #3F8BD8",
"F#	c #57B5E6",
"G#	c #47ABDC",
"H#	c #40D4FF",
"I#	c #3DE0FA",
"J#	c #3BEBFF",
"K#	c #39F2FE",
"L#	c #37FBFF",
"M#	c #34FEFF",
"N#	c #32FFFF",
"O#	c #2CFFFF",
"P#	c #2AFCFD",
"Q#	c #26F9FB",
"R#	c #6020DB",
"S#	c #6C22F7",
"T#	c #692AF7",
"U#	c #692EF9",
"V#	c #6A31FD",
"W#	c #6539FB",
"X#	c #643BFC",
"Y#	c #6540FE",
"Z#	c #6248FF",
"`#	c #604EFE",
" $	c #5F54FA",
".$	c #5F59FF",
"+$	c #6468E8",
"@$	c #47AADE",
"#$	c #3DCFFF",
"$$	c #3FD4F9",
"%$	c #34E3FC",
"&$	c #36ECFB",
"*$	c #33F4FC",
"=$	c #2FFCFE",
"-$	c #2BFFFE",
";$	c #29FEFE",
">$	c #1CFCF9",
",$	c #5F58E0",
"'$	c #5B60FD",
")$	c #5F6EE4",
"!$	c #46A2DD",
"~$	c #47C3FC",
"{$	c #3ECBFF",
"]$	c #46D3F5",
"^$	c #5FCFE2",
"/$	c #5D5EDB",
"($	c #5B5FFE",
"_$	c #5966FD",
":$	c #5C71EB",
"<$	c #4B9CDD",
"[$	c #41C0FB",
"}$	c #4DCBF4",
"|$	c #6FCADF",
"1$	c #5B5FE1",
"2$	c #5764F9",
"3$	c #536EFC",
"4$	c #5E79ED",
"5$	c #4A95E1",
"6$	c #42B2FE",
"7$	c #44B6F7",
"8$	c #4CC1F8",
"9$	c #5B62E7",
"0$	c #566CFF",
"a$	c #5A73FC",
"b$	c #6179EA",
"c$	c #468EDE",
"d$	c #4CA4FA",
"e$	c #41B1FD",
"f$	c #45BAF2",
"g$	c #652AE6",
"h$	c #6A31F1",
"i$	c #6935F4",
"j$	c #6A4CDA",
"k$	c #5569DE",
"l$	c #5973FF",
"m$	c #5777FE",
"n$	c #5781EF",
"o$	c #567EDA",
"p$	c #4E83E5",
"q$	c #4C9DFF",
"r$	c #44A6FE",
"s$	c #4FAEF0",
"t$	c #49D6DE",
"u$	c #2DFBF7",
"v$	c #28FDFD",
"w$	c #56E1E4",
"x$	c #6330EB",
"y$	c #6B34FA",
"z$	c #653AF9",
"A$	c #6950E0",
"B$	c #546DE2",
"C$	c #507AFC",
"D$	c #5480FC",
"E$	c #5087FE",
"F$	c #4D91FD",
"G$	c #5197FC",
"H$	c #4EA4F6",
"I$	c #41D1DE",
"J$	c #3CFCFC",
"K$	c #30FFFB",
"L$	c #2DFBFD",
"M$	c #5AE0E6",
"N$	c #643AE9",
"O$	c #673CFA",
"P$	c #6443FC",
"Q$	c #6654E5",
"R$	c #5274E4",
"S$	c #527EFE",
"T$	c #5484FC",
"U$	c #508DFA",
"V$	c #4C9EF0",
"W$	c #48C9DA",
"X$	c #33F8FF",
"Y$	c #2CFFFB",
"Z$	c #32FAFB",
"`$	c #56E3EB",
" %	c #633CE7",
".%	c #6545F5",
"+%	c #614AF9",
"@%	c #655BE5",
"#%	c #527ADF",
"$%	c #4F87FC",
"%%	c #5692EF",
"&%	c #40C3DE",
"*%	c #34EBFF",
"=%	c #36F6FA",
"-%	c #33FEFF",
";%	c #5CE1E7",
">%	c #6146EB",
",%	c #654BF8",
"'%	c #624EFF",
")%	c #6462E0",
"!%	c #5582D6",
"~%	c #4AB8E0",
"{%	c #3CDBFD",
"]%	c #32EEFC",
"^%	c #36F5FD",
"/%	c #5DDAE1",
"(%	c #604BEB",
"_%	c #6350FD",
":%	c #6259FC",
"<%	c #6262EB",
"[%	c #4DB0DD",
"}%	c #3BD3FF",
"|%	c #3AE1FC",
"1%	c #39EBF7",
"2%	c #5DDBE3",
"3%	c #6050EB",
"4%	c #5A61F8",
"5%	c #636AEC",
"6%	c #48A5E1",
"7%	c #42C2FD",
"8%	c #42D0F5",
"9%	c #42DFF5",
"0%	c #63D2E2",
"a%	c #5A59E9",
"b%	c #5A61FB",
"c%	c #5C66FF",
"d%	c #6172E3",
"e%	c #499EE1",
"f%	c #47BCFF",
"g%	c #40C7FF",
"h%	c #45D2FC",
"i%	c #63C7DC",
"j%	c #5D60E8",
"k%	c #5966FB",
"l%	c #566DFF",
"m%	c #5E76EC",
"n%	c #4F97E0",
"o%	c #41AEFD",
"p%	c #45B9FD",
"q%	c #47C2F7",
"r%	c #65C2E0",
"s%	c #5967EA",
"t%	c #5670FD",
"u%	c #5277FD",
"v%	c #5981F1",
"w%	c #5285E2",
"x%	c #4B8BE5",
"y%	c #47A0FE",
"z%	c #48ADFA",
"A%	c #45BAF7",
"B%	c #66B8DF",
"C%	c #576CEB",
"D%	c #5475FF",
"E%	c #537EFD",
"F%	c #5187F8",
"G%	c #5193FD",
"H%	c #44A3FF",
"I%	c #45B1FA",
"J%	c #6CB1DE",
"K%	c #5275E8",
"L%	c #5380F9",
"M%	c #5287FF",
"N%	c #4F93FD",
"O%	c #4CA1F5",
"P%	c #6FABDB",
"Q%	c #547AE6",
"R%	c #5085FE",
"S%	c #5392F5",
"T%	c #74A6DE",
"U%	c #5381E4",
"V%	c #729CDB",
"                                                                                                                                ",
"                                                                                                                                ",
"                                                                                                                                ",
"                                                                                                                                ",
"                                                                                                                                ",
"                                                              .                                                                 ",
"                                                            + @ #                                                               ",
"                                                          $ % & * =                                                             ",
"                                                        - ; > , ' ) !                                                           ",
"                                                      ~ { ] ^ / ( _ : <                                                         ",
"                                                    [ } | 1 2     3 4 5 6                                                       ",
"                                                  7 8 9 0           a b c d                                                     ",
"                                                e f g h               i j k l                                                   ",
"                                              m n o p                   q r s t                                                 ",
"                                            u v w x           y           z A B C                                               ",
"                                          D E F G           H I J           K L M N                                             ",
"                                        O P Q R           S T U V W           X Y Z `  .                                        ",
"                                      ..+.@.#.          $.%.&.*.=.-.;.          >.,.'.).!.                                      ",
"                                    ~.{.].^.          /.(._.:.<.[.}.|.1.          2.3.4.5.6.                                    ",
"                                    7.  8.          9.0.a.b.c.    d.e.f.g.          h.i.j.k.                                    ",
"                                                  l.m.n.o.p.        q.r.s.t.                                                    ",
"                                                u.v.w.x.y.            z.A.B.C.                                                  ",
"                                              D.E.F.G.H.                I.J.K.L.                                                ",
"                          M.N.O.P.Q.R.S.T.U.V.W.X.Y.Z.                    `. +.+++@+#+$+%+&+*+=+-+;+                            ",
"                          >+,+'+)+!+~+{+]+^+/+(+_+:+                        <+[+}+|+1+2+3+4+5+6+7+8+                            ",
"                          9+0+a+b+c+d+e+f+g+h+i+                              j+k+l+m+n+o+p+q+r+s+t+                            ",
"                                                      u+v+w+x+y+  z+                                                            ",
"                                                    A+B+C+D+E+F+G+H+I+                                                          ",
"                                                  J+K+L+M+N+O+P+Q+R+S+T+                                                        ",
"                                                  U+V+W+X+Y+Z+`+ @.@+@@@                                                        ",
"        #@$@%@&@*@=@-@;@>@,@'@)@!@~@{@              ]@^@  /@(@_@:@.@+@<@[@}@              |@1@2@3@4@5@6@7@8@9@0@a@b@c@          ",
"        d@e@f@g@h@i@j@k@l@m@n@o@p@q@r@                      s@t@ @.@u@v@w@              x@y@z@A@B@C@D@E@F@G@H@I@J@K@L@          ",
"        M@N@O@P@Q@R@S@T@U@V@W@X@Y@Z@`@                         #.#.@+#@#                ##$#%#&#*#=#-#;#>#,#'#)#!#~#{#          ",
"                                                              ]#^#/#(#_#                                                        ",
"                                                              :#.#.@+@<#                                                        ",
"                                                              [#.#}#|#1#                                                        ",
"                                                              2#3#4#5#                                                          ",
"                              6#7#8#9#0#a#b#c#d#                e#f#g#        h#i#j#k#l#m#n#o#p#q#r#                            ",
"                          s#t#u#v#w#x#y#z#A#B#C#D#              E#F#        G#H#I#J#K#L#M#N#5+O#P#Q#                            ",
"                          R#S#T#U#V#W#X#Y#Z#`# $.$+$                      @$#$$$%$&$*$=$-$;$7+7+7+>$                            ",
"                                              ,$.$'$)$                  !$~${$]$^$                                              ",
"                                                /$($_$:$              <$A.[$}$|$                                                ",
"                                                  1$2$3$4$          5$6$7$8$                                                    ",
"                                                    9$0$a$b$      c$d$e$f$                                                      ",
"                                    g$h$i$j$          k$l$m$n$o$p$q$r$s$          t$u$-+v$w$                                    ",
"                                      x$y$z$A$          B$C$D$E$F$G$H$          I$J$K$L$M$                                      ",
"                                        N$O$P$Q$          R$S$T$U$V$          W$X$Y$Z$`$                                        ",
"                                           %.%+%@%          #%$%%%          &%*%=%-%;%                                          ",
"                                            >%,%'%)%          !%          ~%{%]%^%/%                                            ",
"                                              (%_%:%<%                  [%}%|%1%2%                                              ",
"                                                3%.$4%5%              6%7%8%9%0%                                                ",
"                                                  a%b%c%d%          e%f%g%h%i%                                                  ",
"                                                    j%k%l%m%      n%o%p%q%r%                                                    ",
"                                                      s%t%u%v%w%x%y%z%A%B%                                                      ",
"                                                        C%D%E%F%G%H%I%J%                                                        ",
"                                                          K%L%M%N%O%P%                                                          ",
"                                                            Q%R%S%T%                                                            ",
"                                                              U%V%                                                              ",
"                                                                                                                                ",
"                                                                                                                                ",
"                                                                                                                                ",
"                                                                                                                                ",
"                                                                                                                                ",
"                                                                                                                                "};
